<svg
  width="512"
  height="512"
  viewBox="0 0 512 512"
  fill="none"
  xmlns="http://www.w3.org/2000/svg"
>
  <path
    d="M500.606 394.491L444.707 493.46C443.552 495.504 440.587 495.515 439.416 493.483L382.407 394.503C381.13 392.285 383.042 389.601 385.581 390.049L441.54 399.951C441.897 400.016 442.263 400.016 442.621 399.951L497.408 390.065C499.937 389.609 501.86 392.27 500.606 394.491Z"
    fill="url(#paint0_linear_3454_12)"
  />
  <path
    d="M338.487 24.381H55.7352C39.7426 23.629 40.4411 0.134 55.7352 0H338.487C353.858 0.24 354.409 23.565 338.487 24.381ZM55.7303 121.905C39.7426 121.153 40.4411 97.658 55.7303 97.524H220.712C236.079 97.764 236.629 121.089 220.712 121.904L55.7303 121.905ZM173.508 73.143C157.52 72.391 158.219 48.896 173.508 48.762H409.155C424.524 49.002 425.072 72.327 409.155 73.142L173.508 73.143ZM362.042 97.523C377.41 97.765 377.962 121.089 362.044 121.905H267.729C251.742 121.153 252.441 97.658 267.729 97.524L362.042 97.523ZM409.063 121.905C393.076 121.153 393.774 97.658 409.063 97.524H432.711C448.079 97.764 448.628 121.089 432.711 121.904L409.063 121.905ZM55.7303 170.667C39.7426 169.915 40.4411 146.42 55.7303 146.286H102.936C118.304 146.526 118.853 169.851 102.936 170.666L55.7303 170.667ZM338.397 170.667C322.409 169.915 323.108 146.42 338.397 146.286H456.266C471.634 146.526 472.184 169.851 456.266 170.666L338.397 170.667ZM149.953 170.667C133.965 169.915 134.663 146.42 149.953 146.286H173.601C188.968 146.526 189.518 169.851 173.601 170.666L149.953 170.667ZM55.7313 463.238C39.7435 462.486 40.4421 438.991 55.7313 438.858H102.936C118.304 439.098 118.853 462.422 102.936 463.238H55.7313ZM149.953 463.238C133.966 462.486 134.664 438.991 149.953 438.858H173.602C188.969 439.098 189.519 462.422 173.602 463.238H149.953ZM338.398 219.428C322.41 218.677 323.109 195.182 338.398 195.048H456.267C471.635 195.288 472.185 218.613 456.267 219.428H338.398ZM55.7313 219.428C39.7435 218.677 40.4421 195.182 55.7313 195.048H173.601C188.969 195.288 189.519 218.613 173.601 219.428H55.7313ZM55.7313 414.476C39.7435 413.724 40.4421 390.229 55.7313 390.096H173.601C188.969 390.336 189.519 413.66 173.601 414.476H55.7313ZM55.7313 512C39.7435 511.248 40.4421 487.753 55.7313 487.619H173.601C188.969 487.86 189.519 511.184 173.601 512H55.7313ZM55.7313 268.19C39.7435 267.439 40.4421 243.944 55.7313 243.81H79.3796C94.7471 244.05 95.2968 267.375 79.3796 268.19H55.7313ZM126.398 268.19C110.41 267.439 111.109 243.944 126.398 243.81H197.157C212.525 244.05 213.075 267.375 197.157 268.19H126.398ZM244.176 268.19C228.188 267.439 228.886 243.944 244.176 243.81H432.712C448.08 244.05 448.629 267.375 432.712 268.19H244.176ZM338.398 316.952C322.41 316.201 323.109 292.706 338.398 292.572H409.156C424.525 292.812 425.073 316.137 409.156 316.952H338.398ZM197.065 316.952C181.077 316.201 181.775 292.706 197.065 292.572H291.379C306.747 292.812 307.297 316.137 291.379 316.952H197.065ZM55.7313 316.952C39.7435 316.201 40.4421 292.706 55.7313 292.572H150.046C165.414 292.812 165.963 316.137 150.046 316.952H55.7313ZM55.7313 365.714C39.7435 364.963 40.4421 341.468 55.7313 341.334H79.3796C94.7471 341.574 95.2968 364.898 79.3796 365.714H55.7313ZM126.398 365.714C110.41 364.963 111.109 341.468 126.398 341.334H338.49C353.858 341.574 354.408 364.898 338.49 365.714H126.398ZM55.7313 73.143C39.7435 72.391 40.4421 48.896 55.7313 48.762H126.445C141.873 49.002 142.424 72.327 126.445 73.142L55.7313 73.143Z"
    fill="url(#paint1_linear_3454_12)"
  />
  <defs>
    <linearGradient
      id="paint0_linear_3454_12"
      x1="381.014"
      y1="386.513"
      x2="449.692"
      y2="480.716"
      gradientUnits="userSpaceOnUse"
    >
      <stop stop-color="#41D1FF" />
      <stop offset="1" stop-color="#BD34FE" />
    </linearGradient>
    <linearGradient
      id="paint1_linear_3454_12"
      x1="256"
      y1="0"
      x2="256"
      y2="512"
      gradientUnits="userSpaceOnUse"
    >
      <stop stop-color="#FFDD35" />
      <stop offset="1" stop-color="#FFA800" />
    </linearGradient>
  </defs>
</svg>
